# xmcd CD database file
#
# Track frame offsets:
#	150
#	12959
#	24760
#	38348
#	48918
#	62667
#	77283
#	88820
#	99480
#	117329
#	132408
#	145987
#	158748
#	170881
#	187189
#	200523
#	213307
#	229033
#
# Disc length: 3297 seconds
#
# Revision: 2
# Processed by: cddbd v1.5.1PL2 Copyright (c) Steve Scherf et al.
# Submitted via: cdripper 1,0,33,916
#
DISCID=eb0cdf12
DTITLE=Various Artist - Ultimate Country Disk 2
DYEAR=2004
DGENRE=Country
TTITLE0=Hank Williams Snr - I'm So Lonesome I Could Cry
TTITLE1=Patsy Cline - Sweet Dreams
TTITLE2=Farron Young - It's Four In The Morning
TTITLE3=Jim Reeves - He'll Have To Go
TTITLE4=Dave Dudley - The Pool Shark
TTITLE5=Bellamy Brothers - If I Said You Had A Beautiful Body
TTITLE6=Crystal Gayle - Don't It Make My Brown Eyes Blue
TTITLE7=Everly Brothers - All I Have To Do Is Dream
TTITLE8=Lee Greenwood - The Wind Beneath My Wings
TTITLE9=Conway Twitty - Saturday Night Special
TTITLE10=Loretta Lynn - Coal Miner's Daughter
TTITLE11=Don Williams - You're My Best Friend
TTITLE12=Marie Osmond - Paper Roses
TTITLE13=Charlie Daniels Band - Devil Went Down To Georgia
TTITLE14=Kenny Rodgers - Ruby (Don't Take Your Love To Town)
TTITLE15=Lynn Anderson - Rose Garden
TTITLE16=Jo Dee Messina - Heads Carolina, Tails Calafornia
TTITLE17=Trisha Yearwood - How Do I Live
EXTD=YEAR: 2004
EXTT0=
EXTT1=
EXTT2=
EXTT3=
EXTT4=
EXTT5=
EXTT6=
EXTT7=
EXTT8=
EXTT9=
EXTT10=
EXTT11=
EXTT12=
EXTT13=
EXTT14=
EXTT15=
EXTT16=
EXTT17=
PLAYORDER=
